{
  "accessors": [
    {
      "bufferView": 2,
      "componentType": 5126,
      "count": 802,
      "max": [
        2.917030096054077,
        1.6856000423431396,
        7.524020195007324
      ],
      "min": [
        -3.633820056915283,
        -1.287269949913025,
        0.5411199927330017
      ],
      "type": "VEC3"
    },
    {
      "bufferView": 2,
      "byteOffset": 9624,
      "componentType": 5126,
      "count": 802,
      "max": [
        0.9998470544815063,
        1.0,
        0.9999718070030212
      ],
      "min": [
        -0.9998580813407898,
        -1.0,
        -0.9982578158378601
      ],
      "type": "VEC3"
    },
    {
      "bufferView": 1,
      "componentType": 5126,
      "count": 802,
      "max": [
        1.190600037574768,
        1.2712700366973877
      ],
      "min": [
        -0.1780499964952469,
        -0.8914499878883362
      ],
      "type": "VEC2"
    },
    {
      "bufferView": 0,
      "componentType": 5125,
      "count": 1839,
      "type": "SCALAR"
    },
    {
      "bufferView": 2,
      "byteOffset": 19248,
      "componentType": 5126,
      "count": 1202,
      "max": [
        3.229249954223633,
        1.7658100128173828,
        7.725890159606934
      ],
      "min": [
        -3.705820083618164,
        -1.5963000059127808,
        0.058729998767375946
      ],
      "type": "VEC3"
    },
    {
      "bufferView": 2,
      "byteOffset": 33672,
      "componentType": 5126,
      "count": 1202,
      "max": [
        0.9998470544815063,
        1.0,
        0.9999718070030212
      ],
      "min": [
        -0.9998580813407898,
        -1.0,
        -0.9982578158378601
      ],
      "type": "VEC3"
    },
    {
      "bufferView": 1,
      "byteOffset": 6416,
      "componentType": 5126,
      "count": 1202,
      "max": [
        1.3500900268554688,
        1.2927900552749634
      ],
      "min": [
        -0.3289099931716919,
        -1.008970022201538
      ],
      "type": "VEC2"
    },
    {
      "bufferView": 0,
      "byteOffset": 7356,
      "componentType": 5125,
      "count": 2946,
      "type": "SCALAR"
    },
    {
      "bufferView": 2,
      "byteOffset": 48096,
      "componentType": 5126,
      "count": 308,
      "max": [
        0.9097800254821777,
        0.7365099787712097,
        5.829400062561035
      ],
      "min": [
        -0.9369199872016907,
        -0.9866499900817871,
        1.3000600337982178
      ],
      "type": "VEC3"
    },
    {
      "bufferView": 2,
      "byteOffset": 51792,
      "componentType": 5126,
      "count": 308,
      "max": [
        0.9993616938591003,
        0.996220588684082,
        0.997122585773468
      ],
      "min": [
        -0.998925507068634,
        -0.996220588684082,
        -0.9990975260734558
      ],
      "type": "VEC3"
    },
    {
      "bufferView": 1,
      "byteOffset": 16032,
      "componentType": 5126,
      "count": 308,
      "max": [
        0.9548900127410889,
        0.8694900274276733
      ],
      "min": [
        0.01257999986410141,
        0.01257999986410141
      ],
      "type": "VEC2"
    },
    {
      "bufferView": 0,
      "byteOffset": 19140,
      "componentType": 5125,
      "count": 747,
      "type": "SCALAR"
    },
    {
      "bufferView": 2,
      "byteOffset": 55488,
      "componentType": 5126,
      "count": 867,
      "max": [
        2.0515599250793457,
        1.7534199953079224,
        6.860799789428711
      ],
      "min": [
        -1.6486300230026245,
        -1.6170099973678589,
        0.002319999970495701
      ],
      "type": "VEC3"
    },
    {
      "bufferView": 2,
      "byteOffset": 65892,
      "componentType": 5126,
      "count": 867,
      "max": [
        0.9999420046806335,
        0.9999776482582092,
        0.9999534487724304
      ],
      "min": [
        -0.9998759627342224,
        -0.9999776482582092,
        -0.9964468479156494
      ],
      "type": "VEC3"
    },
    {
      "bufferView": 1,
      "byteOffset": 18496,
      "componentType": 5126,
      "count": 867,
      "max": [
        1.231660008430481,
        1.1736500263214111
      ],
      "min": [
        -0.11186999827623367,
        -0.1017799973487854
      ],
      "type": "VEC2"
    },
    {
      "bufferView": 0,
      "byteOffset": 22128,
      "componentType": 5125,
      "count": 2130,
      "type": "SCALAR"
    },
    {
      "bufferView": 2,
      "byteOffset": 76296,
      "componentType": 5126,
      "count": 168,
      "max": [
        0.7082599997520447,
        0.8520399928092957,
        6.2121901512146
      ],
      "min": [
        -0.9524199962615967,
        -0.8535500168800354,
        4.7085700035095215
      ],
      "type": "VEC3"
    },
    {
      "bufferView": 2,
      "byteOffset": 78312,
      "componentType": 5126,
      "count": 168,
      "max": [
        0.992827832698822,
        0.8310021758079529,
        0.9939170479774475
      ],
      "min": [
        -0.9926261901855469,
        -0.7307866215705872,
        -0.9680351614952087
      ],
      "type": "VEC3"
    },
    {
      "bufferView": 1,
      "byteOffset": 25432,
      "componentType": 5126,
      "count": 168,
      "max": [
        0.9193300008773804,
        1.285830020904541
      ],
      "min": [
        0.02379000000655651,
        -0.1457200050354004
      ],
      "type": "VEC2"
    },
    {
      "bufferView": 0,
      "byteOffset": 30648,
      "componentType": 5125,
      "count": 447,
      "type": "SCALAR"
    },
    {
      "bufferView": 2,
      "byteOffset": 80328,
      "componentType": 5126,
      "count": 42,
      "max": [
        0.3785400092601776,
        -0.252020001411438,
        5.888780117034912
      ],
      "min": [
        0.035679999738931656,
        -0.592960000038147,
        5.2435197830200195
      ],
      "type": "VEC3"
    },
    {
      "bufferView": 2,
      "byteOffset": 80832,
      "componentType": 5126,
      "count": 42,
      "max": [
        0.996008038520813,
        0.9972739219665527,
        0.9606472849845886
      ],
      "min": [
        -0.9989258646965027,
        -0.9991428852081299,
        0.0058301896788179874
      ],
      "type": "VEC3"
    },
    {
      "bufferView": 1,
      "byteOffset": 26776,
      "componentType": 5126,
      "count": 42,
      "max": [
        0.687279999256134,
        0.43584999442100525
      ],
      "min": [
        0.22530999779701233,
        0.12176000326871872
      ],
      "type": "VEC2"
    },
    {
      "bufferView": 0,
      "byteOffset": 32436,
      "componentType": 5125,
      "count": 114,
      "type": "SCALAR"
    },
    {
      "bufferView": 2,
      "byteOffset": 81336,
      "componentType": 5126,
      "count": 42,
      "max": [
        0.5471400022506714,
        -0.5809000134468079,
        5.999350070953369
      ],
      "min": [
        0.2989799976348877,
        -0.8499400019645691,
        5.509469985961914
      ],
      "type": "VEC3"
    },
    {
      "bufferView": 2,
      "byteOffset": 81840,
      "componentType": 5126,
      "count": 42,
      "max": [
        0.9953321218490601,
        0.9967814087867737,
        0.9606532454490662
      ],
      "min": [
        -0.9985366463661194,
        -0.9900470972061157,
        -0.1307135969400406
      ],
      "type": "VEC3"
    },
    {
      "bufferView": 1,
      "byteOffset": 27112,
      "componentType": 5126,
      "count": 42,
      "max": [
        0.7735700011253357,
        0.49300000071525574
      ],
      "min": [
        0.09080000221729279,
        0.07502999901771545
      ],
      "type": "VEC2"
    },
    {
      "bufferView": 0,
      "byteOffset": 32892,
      "componentType": 5125,
      "count": 114,
      "type": "SCALAR"
    }
  ],
  "asset": {
    "extras": {
      "author": "OswaldFan001 (https://sketchfab.com/Oswald001)",
      "license": "CC-BY-4.0 (http://creativecommons.org/licenses/by/4.0/)",
      "source": "https://sketchfab.com/3d-models/pitching-machine-59a46ee68a3a44ecbd3743ea9ddb7063",
      "title": "Pitching Machine"
    },
    "generator": "Sketchfab-15.12.0",
    "version": "2.0"
  },
  "bufferViews": [
    {
      "buffer": 0,
      "byteLength": 33348,
      "name": "floatBufferViews",
      "target": 34963
    },
    {
      "buffer": 0,
      "byteLength": 27448,
      "byteOffset": 33348,
      "byteStride": 8,
      "name": "floatBufferViews",
      "target": 34962
    },
    {
      "buffer": 0,
      "byteLength": 82344,
      "byteOffset": 60796,
      "byteStride": 12,
      "name": "floatBufferViews",
      "target": 34962
    }
  ],
  "buffers": [
    {
      "byteLength": 143140,
      "uri": "scene.bin"
    }
  ],
  "images": [
    {
      "uri": "textures/Material_baseColor.png"
    },
    {
      "uri": "textures/Material.001_baseColor.png"
    },
    {
      "uri": "textures/Material.003_baseColor.png"
    },
    {
      "uri": "textures/Material.004_baseColor.png"
    }
  ],
  "materials": [
    {
      "doubleSided": true,
      "name": "Material",
      "pbrMetallicRoughness": {
        "baseColorTexture": {
          "index": 0
        },
        "metallicFactor": 0.0,
        "roughnessFactor": 0.6
      }
    },
    {
      "doubleSided": true,
      "name": "Material.001",
      "pbrMetallicRoughness": {
        "baseColorTexture": {
          "index": 1
        },
        "metallicFactor": 0.0,
        "roughnessFactor": 0.6
      }
    },
    {
      "doubleSided": true,
      "name": "Material.002",
      "pbrMetallicRoughness": {
        "baseColorFactor": [
          0.010021507740020752,
          0.010021507740020752,
          0.010021507740020752,
          1.0
        ],
        "metallicFactor": 0.0,
        "roughnessFactor": 0.6
      }
    },
    {
      "doubleSided": true,
      "name": "Material.003",
      "pbrMetallicRoughness": {
        "baseColorTexture": {
          "index": 2
        },
        "metallicFactor": 0.0,
        "roughnessFactor": 0.6
      }
    },
    {
      "doubleSided": true,
      "name": "Material.004",
      "pbrMetallicRoughness": {
        "baseColorTexture": {
          "index": 3
        },
        "metallicFactor": 0.0,
        "roughnessFactor": 0.6
      }
    },
    {
      "doubleSided": true,
      "name": "Lamp.001",
      "pbrMetallicRoughness": {
        "baseColorFactor": [
          0.08740288019180298,
          0.3505491018295288,
          0.08779099583625793,
          1.0
        ],
        "metallicFactor": 0.0,
        "roughnessFactor": 0.6
      }
    },
    {
      "doubleSided": true,
      "name": "Material.006",
      "pbrMetallicRoughness": {
        "baseColorFactor": [
          0.31080693006515503,
          0.0,
          0.0023554202634841204,
          1.0
        ],
        "metallicFactor": 0.0,
        "roughnessFactor": 0.6
      }
    }
  ],
  "meshes": [
    {
      "name": "Cube_0",
      "primitives": [
        {
          "attributes": {
            "NORMAL": 1,
            "POSITION": 0,
            "TEXCOORD_0": 2
          },
          "indices": 3,
          "material": 0,
          "mode": 4
        }
      ]
    },
    {
      "name": "Cube_1",
      "primitives": [
        {
          "attributes": {
            "NORMAL": 5,
            "POSITION": 4,
            "TEXCOORD_0": 6
          },
          "indices": 7,
          "material": 1,
          "mode": 4
        }
      ]
    },
    {
      "name": "Cube_2",
      "primitives": [
        {
          "attributes": {
            "NORMAL": 9,
            "POSITION": 8,
            "TEXCOORD_0": 10
          },
          "indices": 11,
          "material": 2,
          "mode": 4
        }
      ]
    },
    {
      "name": "Cube_3",
      "primitives": [
        {
          "attributes": {
            "NORMAL": 13,
            "POSITION": 12,
            "TEXCOORD_0": 14
          },
          "indices": 15,
          "material": 3,
          "mode": 4
        }
      ]
    },
    {
      "name": "Cube_4",
      "primitives": [
        {
          "attributes": {
            "NORMAL": 17,
            "POSITION": 16,
            "TEXCOORD_0": 18
          },
          "indices": 19,
          "material": 4,
          "mode": 4
        }
      ]
    },
    {
      "name": "Cube_5",
      "primitives": [
        {
          "attributes": {
            "NORMAL": 21,
            "POSITION": 20,
            "TEXCOORD_0": 22
          },
          "indices": 23,
          "material": 5,
          "mode": 4
        }
      ]
    },
    {
      "name": "Cube_6",
      "primitives": [
        {
          "attributes": {
            "NORMAL": 25,
            "POSITION": 24,
            "TEXCOORD_0": 26
          },
          "indices": 27,
          "material": 6,
          "mode": 4
        }
      ]
    }
  ],
  "nodes": [
    {
      "children": [
        1
      ],
      "matrix": [
        1.0,
        0.0,
        0.0,
        0.0,
        0.0,
        2.220446049250313e-16,
        -1.0,
        0.0,
        0.0,
        1.0,
        2.220446049250313e-16,
        0.0,
        0.0,
        0.0,
        0.0,
        1.0
      ],
      "name": "Sketchfab_model"
    },
    {
      "children": [
        2,
        4,
        12
      ],
      "name": "Root"
    },
    {
      "children": [
        3
      ],
      "matrix": [
        0.05793000000000001,
        0.6167900000000002,
        0.7849900000000001,
        0.0,
        -0.8025,
        -0.43895000000000006,
        0.40412000000000003,
        0.0,
        0.5938400000000001,
        -0.6533700000000001,
        0.46954,
        0.0,
        2.40652,
        -3.80509,
        4.58565,
        1.0
      ],
      "name": "Lamp"
    },
    {
      "name": "Lamp"
    },
    {
      "children": [
        5,
        6,
        7,
        8,
        9,
        10,
        11
      ],
      "matrix": [
        0.006340000000000002,
        -0.40765,
        0.0,
        0.0,
        0.40765,
        0.006340000000000002,
        0.0,
        0.0,
        -0.0,
        0.0,
        0.4077,
        0.0,
        0.0,
        0.0,
        0.0,
        1.0
      ],
      "name": "Cube"
    },
    {
      "mesh": 0,
      "name": "Cube_0"
    },
    {
      "mesh": 1,
      "name": "Cube_1"
    },
    {
      "mesh": 2,
      "name": "Cube_2"
    },
    {
      "mesh": 3,
      "name": "Cube_3"
    },
    {
      "mesh": 4,
      "name": "Cube_4"
    },
    {
      "mesh": 5,
      "name": "Cube_5"
    },
    {
      "mesh": 6,
      "name": "Cube_6"
    },
    {
      "children": [
        13
      ],
      "matrix": [
        0.05793000000000001,
        0.6167900000000002,
        0.7849900000000001,
        0.0,
        -0.8025,
        -0.43895000000000006,
        0.40412000000000003,
        0.0,
        0.5938400000000001,
        -0.6533700000000001,
        0.46954,
        0.0,
        2.40652,
        -3.80509,
        4.58565,
        1.0
      ],
      "name": "Lamp.001"
    },
    {
      "name": "Lamp.001"
    }
  ],
  "samplers": [
    {
      "magFilter": 9729,
      "minFilter": 9987,
      "wrapS": 10497,
      "wrapT": 10497
    }
  ],
  "scene": 0,
  "scenes": [
    {
      "name": "Sketchfab_Scene",
      "nodes": [
        0
      ]
    }
  ],
  "textures": [
    {
      "sampler": 0,
      "source": 0
    },
    {
      "sampler": 0,
      "source": 1
    },
    {
      "sampler": 0,
      "source": 2
    },
    {
      "sampler": 0,
      "source": 3
    }
  ]
}
